{"asset":{"generator":"3D Builder","version":"2.0"},"scene":0,"scenes":[{"nodes":[0]}],"nodes":[{"children":[1,2,3,4,5,6,7,8,9]},{"mesh":0,"matrix":[0.39370077848434448,0,0,0,0,0.39369991421699524,-1.1733173721495405E-7,0,0,1.1146516953886021E-7,0.39370003342628479,0,0.00295455870218575,0.16865870356559753,0.0091338390484452248,1]},{"mesh":1,"matrix":[0.39370077848434448,0,0,0,0,0.39369991421699524,-1.1733173721495405E-7,0,0,1.1146516953886021E-7,0.39370003342628479,0,0.00295455870218575,0.16865870356559753,0.0091338390484452248,1]},{"mesh":2,"matrix":[0.39370077848434448,0,0,0,0,0.39369991421699524,-1.1733173721495405E-7,0,0,1.1146516953886021E-7,0.39370003342628479,0,0.00295455870218575,0.16865870356559753,0.0091338390484452248,1]},{"mesh":3,"matrix":[0.39370077848434448,0,0,0,0,0.39369991421699524,-1.1733173721495405E-7,0,0,1.1146516953886021E-7,0.39370003342628479,0,0.00295455870218575,0.16865870356559753,0.0091338390484452248,1]},{"mesh":4,"matrix":[0.39370077848434448,0,0,0,0,0.39369991421699524,-1.1733173721495405E-7,0,0,1.1146516953886021E-7,0.39370003342628479,0,0.00295455870218575,0.16865870356559753,0.0091338390484452248,1]},{"mesh":5,"matrix":[0.39370077848434448,0,0,0,0,0.39369991421699524,-1.1733173721495405E-7,0,0,1.1146516953886021E-7,0.39370003342628479,0,0.00295455870218575,0.16865870356559753,0.0091338390484452248,1]},{"mesh":6,"matrix":[0.39370077848434448,0,0,0,0,0.39369991421699524,-1.1733173721495405E-7,0,0,1.1146516953886021E-7,0.39370003342628479,0,0.00295455870218575,0.16865870356559753,0.0091338390484452248,1]},{"mesh":7,"matrix":[0.39370077848434448,0,0,0,0,0.39369991421699524,-1.1733173721495405E-7,0,0,1.1146516953886021E-7,0.39370003342628479,0,0.00295455870218575,0.16865870356559753,0.0091338390484452248,1]},{"mesh":8,"matrix":[0.39370077848434448,0,0,0,0,0.39369991421699524,-1.1733173721495405E-7,0,0,1.1146516953886021E-7,0.39370003342628479,0,0.00295455870218575,0.16865870356559753,0.0091338390484452248,1]}],"meshes":[{"primitives":[{"attributes":{"POSITION":0},"mode":4,"indices":3,"material":0},{"attributes":{"POSITION":1,"COLOR_0":2},"mode":4,"indices":4}]},{"primitives":[{"attributes":{"POSITION":5},"mode":4,"indices":8,"material":0},{"attributes":{"POSITION":6,"COLOR_0":7},"mode":4,"indices":9}]},{"primitives":[{"attributes":{"POSITION":10},"mode":4,"indices":13,"material":0},{"attributes":{"POSITION":11,"COLOR_0":12},"mode":4,"indices":14}]},{"primitives":[{"attributes":{"POSITION":15,"COLOR_0":16},"mode":4,"indices":17}]},{"primitives":[{"attributes":{"POSITION":18,"COLOR_0":19},"mode":4,"indices":20}]},{"primitives":[{"attributes":{"POSITION":21,"COLOR_0":22},"mode":4,"indices":23}]},{"primitives":[{"attributes":{"POSITION":24},"mode":4,"indices":27,"material":0},{"attributes":{"POSITION":25,"COLOR_0":26},"mode":4,"indices":28}]},{"primitives":[{"attributes":{"POSITION":29},"mode":4,"indices":32,"material":0},{"attributes":{"POSITION":30,"COLOR_0":31},"mode":4,"indices":33}]},{"primitives":[{"attributes":{"POSITION":34,"COLOR_0":35},"mode":4,"indices":36}]}],"materials":[{"name":"default","pbrMetallicRoughness":{"baseColorFactor":[1,1,1,1],"metallicFactor":0,"roughnessFactor":1},"alphaMode":"OPAQUE"}],"accessors":[{"bufferView":0,"byteOffset":0,"count":35,"componentType":5126,"type":"VEC3","min":[-0.327493280172348,-0.049494095146656036,-0.026738788932561874],"max":[-0.30453169345855713,-0.019826890900731087,-1.7988848412642255E-5]},{"bufferView":0,"byteOffset":420,"count":4471,"componentType":5126,"type":"VEC3","min":[-0.43417328596115112,-0.40484011173248291,-0.026738788932561874],"max":[-0.095388099551200867,0.20034028589725494,-1.7988848412642255E-5]},{"bufferView":1,"byteOffset":0,"count":4471,"componentType":5121,"type":"VEC4","normalized":true},{"bufferView":2,"byteOffset":0,"count":48,"componentType":5125,"type":"SCALAR"},{"bufferView":2,"byteOffset":192,"count":26766,"componentType":5125,"type":"SCALAR"},{"bufferView":3,"byteOffset":0,"count":8,"componentType":5126,"type":"VEC3","min":[0.17456312477588654,0.086751483380794525,-0.026738788932561874],"max":[0.24873113632202148,0.087259501218795776,-1.7988848412642255E-5]},{"bufferView":3,"byteOffset":96,"count":3561,"componentType":5126,"type":"VEC3","min":[0.14408311247825623,-0.386907696723938,-0.026738788932561874],"max":[0.41748875379562378,0.19058671593666077,-1.7988848412642255E-5]},{"bufferView":4,"byteOffset":0,"count":3561,"componentType":5121,"type":"VEC4","normalized":true},{"bufferView":5,"byteOffset":0,"count":12,"componentType":5125,"type":"SCALAR"},{"bufferView":5,"byteOffset":48,"count":21342,"componentType":5125,"type":"SCALAR"},{"bufferView":6,"byteOffset":0,"count":612,"componentType":5126,"type":"VEC3","min":[-0.0319896899163723,-0.059654086828231812,-0.02678958885371685],"max":[0.063717521727085114,0.12307349592447281,-1.7988848412642255E-5]},{"bufferView":6,"byteOffset":7344,"count":5663,"componentType":5126,"type":"VEC3","min":[-0.10590368509292603,-0.10481530427932739,-0.02678958885371685],"max":[0.09460391104221344,0.20933188498020172,-1.7988848412642255E-5]},{"bufferView":7,"byteOffset":0,"count":5663,"componentType":5121,"type":"VEC4","normalized":true},{"bufferView":8,"byteOffset":0,"count":1137,"componentType":5125,"type":"SCALAR"},{"bufferView":8,"byteOffset":4548,"count":32931,"componentType":5125,"type":"SCALAR"},{"bufferView":9,"byteOffset":0,"count":954,"componentType":5126,"type":"VEC3","min":[0.26686671376228333,-0.16816289722919464,-0.026738788932561874],"max":[0.34215232729911804,-0.072252489626407623,-1.7988848412642255E-5]},{"bufferView":10,"byteOffset":0,"count":954,"componentType":5121,"type":"VEC4","normalized":true},{"bufferView":11,"byteOffset":0,"count":5712,"componentType":5125,"type":"SCALAR"},{"bufferView":12,"byteOffset":0,"count":948,"componentType":5126,"type":"VEC3","min":[0.27941432595252991,-0.25467529892921448,-0.026738788932561874],"max":[0.33001115918159485,-0.18833050131797791,-1.7988848412642255E-5]},{"bufferView":13,"byteOffset":0,"count":948,"componentType":5121,"type":"VEC4","normalized":true},{"bufferView":14,"byteOffset":0,"count":5676,"componentType":5125,"type":"SCALAR"},{"bufferView":15,"byteOffset":0,"count":2026,"componentType":5126,"type":"VEC3","min":[0.015762312337756157,-0.037911687046289444,-0.026738788932561874],"max":[0.1747155487537384,0.19830828905105591,-1.7988848412642255E-5]},{"bufferView":16,"byteOffset":0,"count":2026,"componentType":5121,"type":"VEC4","normalized":true},{"bufferView":17,"byteOffset":0,"count":12156,"componentType":5125,"type":"SCALAR"},{"bufferView":18,"byteOffset":0,"count":4,"componentType":5126,"type":"VEC3","min":[-0.13861888647079468,-0.056555293500423431,-1.7988848412642255E-5],"max":[-0.11108529567718506,-0.0028088886756449938,-1.7988848412642255E-5]},{"bufferView":18,"byteOffset":48,"count":1452,"componentType":5126,"type":"VEC3","min":[-0.1767696887254715,-0.062041707336902618,-0.026738788932561874],"max":[-0.0706992968916893,0.15553468465805054,-1.7988848412642255E-5]},{"bufferView":19,"byteOffset":0,"count":1452,"componentType":5121,"type":"VEC4","normalized":true},{"bufferView":20,"byteOffset":0,"count":6,"componentType":5125,"type":"SCALAR"},{"bufferView":20,"byteOffset":24,"count":8754,"componentType":5125,"type":"SCALAR"},{"bufferView":21,"byteOffset":0,"count":8,"componentType":5126,"type":"VEC3","min":[-0.31245651841163635,-0.25503090023994446,-0.026738788932561874],"max":[-0.31057688593864441,-0.25482770800590515,-1.7988848412642255E-5]},{"bufferView":21,"byteOffset":96,"count":938,"componentType":5126,"type":"VEC3","min":[-0.32916969060897827,-0.25503090023994446,-0.026738788932561874],"max":[-0.28512609004974365,-0.20057329535484314,-1.7988848412642255E-5]},{"bufferView":22,"byteOffset":0,"count":938,"componentType":5121,"type":"VEC4","normalized":true},{"bufferView":23,"byteOffset":0,"count":12,"componentType":5125,"type":"SCALAR"},{"bufferView":23,"byteOffset":48,"count":5604,"componentType":5125,"type":"SCALAR"},{"bufferView":24,"byteOffset":0,"count":954,"componentType":5126,"type":"VEC3","min":[-0.40653812885284424,-0.2087521106004715,-0.026738788932561874],"max":[-0.33074447512626648,-0.11319730430841446,-1.7988848412642255E-5]},{"bufferView":25,"byteOffset":0,"count":954,"componentType":5121,"type":"VEC4","normalized":true},{"bufferView":26,"byteOffset":0,"count":5712,"componentType":5125,"type":"SCALAR"}],"bufferViews":[{"buffer":0,"byteOffset":0,"byteLength":54072,"byteStride":12,"target":34962},{"buffer":0,"byteOffset":54072,"byteLength":17884,"byteStride":4,"target":34962},{"buffer":0,"byteOffset":71956,"byteLength":107256,"target":34963},{"buffer":0,"byteOffset":179212,"byteLength":42828,"byteStride":12,"target":34962},{"buffer":0,"byteOffset":222040,"byteLength":14244,"byteStride":4,"target":34962},{"buffer":0,"byteOffset":236284,"byteLength":85416,"target":34963},{"buffer":0,"byteOffset":321700,"byteLength":75300,"byteStride":12,"target":34962},{"buffer":0,"byteOffset":397000,"byteLength":22652,"byteStride":4,"target":34962},{"buffer":0,"byteOffset":419652,"byteLength":136272,"target":34963},{"buffer":0,"byteOffset":555924,"byteLength":11448,"byteStride":12,"target":34962},{"buffer":0,"byteOffset":567372,"byteLength":3816,"byteStride":4,"target":34962},{"buffer":0,"byteOffset":571188,"byteLength":22848,"target":34963},{"buffer":0,"byteOffset":594036,"byteLength":11376,"byteStride":12,"target":34962},{"buffer":0,"byteOffset":605412,"byteLength":3792,"byteStride":4,"target":34962},{"buffer":0,"byteOffset":609204,"byteLength":22704,"target":34963},{"buffer":0,"byteOffset":631908,"byteLength":24312,"byteStride":12,"target":34962},{"buffer":0,"byteOffset":656220,"byteLength":8104,"byteStride":4,"target":34962},{"buffer":0,"byteOffset":664324,"byteLength":48624,"target":34963},{"buffer":0,"byteOffset":712948,"byteLength":17472,"byteStride":12,"target":34962},{"buffer":0,"byteOffset":730420,"byteLength":5808,"byteStride":4,"target":34962},{"buffer":0,"byteOffset":736228,"byteLength":35040,"target":34963},{"buffer":0,"byteOffset":771268,"byteLength":11352,"byteStride":12,"target":34962},{"buffer":0,"byteOffset":782620,"byteLength":3752,"byteStride":4,"target":34962},{"buffer":0,"byteOffset":786372,"byteLength":22464,"target":34963},{"buffer":0,"byteOffset":808836,"byteLength":11448,"byteStride":12,"target":34962},{"buffer":0,"byteOffset":820284,"byteLength":3816,"byteStride":4,"target":34962},{"buffer":0,"byteOffset":824100,"byteLength":22848,"target":34963}],"buffers":[{"byteLength":846948,"uri":"2104_01 - HOWDY.bin"}]}